<svg version="1.1" id="Layer_1" xmlns="http://www.w3.org/2000/svg" xmlns:xlink="http://www.w3.org/1999/xlink" x="0px" y="0px"
	 width="100%" viewBox="0 0 1024 1024" enable-background="new 0 0 1024 1024" xml:space="preserve">
<path fill="hsl(0, 0%, 80%)" opacity="1.000000" stroke="none" style="fill-opacity: 1"
	d="
M126.525330,842.741699
	C134.127777,811.908936 148.003677,784.367798 164.812302,758.151428
	C167.596710,753.808594 170.094040,749.278137 172.958679,744.991150
	C175.466568,741.238037 174.641113,738.827454 170.914719,736.462463
	C155.265732,726.531067 140.666794,715.203857 127.264046,702.397217
	C105.622940,681.718506 86.075287,659.357544 71.066650,633.231628
	C59.903191,613.799072 59.692562,594.940857 71.777199,575.799622
	C83.321678,557.513794 97.481094,541.365845 112.162796,525.697876
	C144.294067,491.408295 177.777176,458.428741 210.738983,424.943237
	C234.490234,400.814667 263.427673,385.831696 294.955719,374.827332
	C314.585388,367.975891 334.305237,361.278687 353.230347,352.555115
	C371.477020,344.144165 385.165710,331.647369 390.047180,311.285767
	C392.006592,303.112701 388.713684,295.871857 385.923126,288.627014
	C380.659882,274.962524 373.602997,262.051178 368.853180,248.156845
	C348.593750,188.893097 387.885681,121.986137 449.545990,110.549736
	C470.350342,106.691063 491.227325,106.877541 512.155334,108.560600
	C527.955872,109.831306 543.653198,109.777649 559.334534,107.094856
	C565.753357,105.996719 572.297302,106.109344 578.567261,108.304771
	C591.706055,112.905312 597.704468,126.048180 593.841675,141.535828
	C592.706970,146.085388 591.019165,150.428787 588.691284,154.486710
	C587.572144,156.437515 587.755432,157.836792 588.831299,159.915756
	C597.890686,177.421036 604.671814,195.822281 609.043396,215.031616
	C610.136047,219.833115 610.076843,225.094345 607.694214,229.723694
	C606.142090,232.739395 606.807739,234.882782 608.701660,237.425354
	C616.565308,247.982407 623.831360,258.951935 630.567871,270.265381
	C632.790710,273.998505 634.804993,277.867004 635.277466,282.255280
	C636.479187,293.415924 630.013184,301.078247 618.015442,302.284332
	C613.484985,302.739777 611.153015,304.606415 611.388916,309.130981
	C611.705017,315.194916 611.115906,320.827820 605.605286,324.704437
	C604.890503,325.207306 604.531860,326.087006 604.830322,326.928589
	C606.414917,331.397461 604.346619,335.021454 602.270325,338.686401
	C600.563660,341.698700 600.136536,344.736542 601.226257,348.235870
	C603.055115,354.108429 604.407471,360.080933 602.539429,366.340424
	C599.453308,376.681122 591.756470,382.856689 580.989258,383.365540
	C572.629761,383.760590 564.340576,383.209625 556.248047,381.059937
	C536.766663,375.885010 528.507568,380.849915 518.208069,396.077057
	C514.374512,401.744659 511.406036,407.910278 509.098389,414.379761
	C508.414032,416.298248 507.952209,418.147064 508.788116,420.432129
	C512.934265,419.975861 516.423767,417.962616 520.149475,416.795410
	C524.300659,415.494904 528.405396,414.459503 532.841614,414.569214
	C537.093567,414.674347 539.600403,417.080719 539.125916,420.668579
	C537.918701,429.796143 541.605652,434.867218 549.113281,440.271759
	C565.651001,452.176849 575.215515,469.926514 582.968933,488.308136
	C598.129028,524.249207 614.443115,559.606140 633.451721,593.688904
	C634.182129,594.998413 634.912659,596.308594 635.608154,597.636780
	C636.855164,600.018005 638.411499,600.646057 640.799866,598.959106
	C654.529480,589.261841 668.872375,580.369690 680.966431,568.525940
	C687.991333,561.646484 694.882507,554.630615 701.858154,547.700562
	C704.774292,544.803528 707.279480,541.249023 712.128906,541.382080
	C712.789185,541.400208 713.699280,540.671875 714.112854,540.039917
	C718.667847,533.078796 724.053955,526.226624 723.553894,517.400208
	C722.405579,497.131226 728.143555,478.974640 739.122192,462.192047
	C745.109863,453.038818 745.858032,442.527832 746.615906,432.052338
	C746.864563,428.614563 745.125549,426.747803 741.738159,426.368469
	C732.832764,425.371155 723.932922,424.319397 715.019714,423.396973
	C702.637573,422.115448 690.960815,418.490784 679.838623,412.995056
	C678.663269,412.414246 677.518250,411.626648 676.603333,410.695129
	C674.813232,408.872589 673.366211,406.830231 674.519104,404.033539
	C675.694580,401.182007 678.216125,401.732086 680.502441,401.636444
	C706.654602,400.542389 732.822083,401.273438 758.980713,400.961823
	C760.786133,400.940308 762.590332,400.809845 764.894043,400.707977
	C764.478699,394.230133 762.581421,388.406464 761.215820,382.531158
	C759.599365,375.576996 757.489746,368.731964 755.434143,361.887573
	C754.316162,358.165131 752.521667,354.553131 749.300354,352.358765
	C735.383545,342.878479 735.200745,319.015991 747.470764,306.029144
	C752.085022,301.145325 756.983887,296.670319 763.168091,293.881500
	C765.687500,292.745300 767.333923,291.068512 767.472473,288.293976
	C767.973755,278.258240 774.126831,271.651428 781.695251,266.538116
	C787.043335,262.924927 789.895813,258.478180 790.614502,252.372635
	C791.430359,245.441025 795.224304,240.642807 801.340454,237.784058
	C805.784912,235.706696 808.975220,232.770981 811.099976,228.299484
	C813.226746,223.823792 817.588074,221.721176 821.892456,219.844376
	C826.387146,217.884567 830.163025,215.188446 833.527161,211.511185
	C842.294556,201.927719 857.326660,205.365753 860.527283,217.891693
	C862.315796,224.890991 865.995605,228.863495 872.496277,231.841339
	C882.541382,236.442780 889.244080,244.279800 890.488159,255.830292
	C890.905273,259.703094 892.635620,262.513641 896.059570,264.673218
	C901.751160,268.263062 906.360596,273.082886 909.974121,278.800781
	C911.500488,281.215912 913.392761,283.987640 913.046570,286.580536
	C912.156616,293.246429 916.472046,295.669952 920.897461,298.811279
	C932.150757,306.799225 939.801025,317.087433 939.315979,331.714508
	C939.088989,338.559296 937.289673,345.162354 932.129822,349.808533
	C924.957520,356.266754 921.299622,364.323212 918.961487,373.366669
	C917.007080,380.925659 914.640137,388.377319 912.526794,395.896454
	C912.134644,397.291779 911.506836,398.762238 912.344666,400.261566
	C913.657654,401.316925 915.202942,400.913849 916.669739,400.914429
	C935.168701,400.921600 953.667786,400.886749 972.166626,400.939819
	C975.154236,400.948395 978.143616,401.299438 981.126892,401.553619
	C983.209961,401.731079 985.706482,401.278381 986.246155,404.305939
	C986.726318,406.999390 985.945435,409.236664 983.684326,410.890320
	C979.740540,413.774475 975.251221,415.552856 970.739441,417.279510
	C958.080322,422.124084 944.897888,424.723602 931.487122,426.261871
	C929.040283,426.542511 927.191895,427.045532 927.369324,430.000427
	C927.745361,436.263306 924.711853,441.291931 921.166809,445.942413
	C912.786865,456.935608 904.291443,467.845703 895.629822,478.618225
	C885.778809,490.870117 877.981689,504.471893 869.560364,517.659485
	C863.066101,527.829407 853.800781,534.604004 843.525452,540.401123
	C826.991943,549.728943 809.910400,558.067993 793.790466,568.144897
	C785.474365,573.343506 778.760742,580.209412 772.514099,587.627136
	C770.496094,590.023376 769.574524,592.040405 772.478699,594.832703
	C775.754028,597.981934 774.515381,601.871277 772.617004,605.446106
	C767.446899,615.182007 760.971863,624.079895 754.895386,633.240479
	C749.803650,640.916565 742.808960,647.076660 737.492126,654.324219
	C726.000000,669.989258 712.507263,683.789978 699.757019,698.270874
	C686.397278,713.443726 671.307434,726.819641 654.685059,738.392090
	C648.215820,742.895996 641.258484,746.429138 633.554871,748.335449
	C623.865173,750.733154 615.092346,747.919067 606.780579,743.285156
	C589.810608,733.824219 576.545105,719.910706 562.923096,706.430847
	C544.525879,688.225647 527.837830,668.552368 512.301575,647.876831
	C511.127594,646.314575 509.773560,644.887573 508.705353,643.634827
	C506.499725,643.833923 506.068634,645.239502 505.522705,646.389404
	C486.219543,687.049377 463.193390,725.733826 442.249817,765.524109
	C430.894165,787.098328 421.068726,809.269409 413.417633,832.394653
	C411.858917,837.105896 409.972961,839.711304 404.511444,837.527161
	C400.922485,836.091797 399.116486,838.042114 398.341339,841.719971
	C392.962006,867.242920 388.582611,892.895752 387.214539,919.000488
	C387.006470,922.970581 386.305511,926.909973 386.266449,930.923462
	C386.226196,935.054138 384.030731,937.411926 379.690063,937.376160
	C378.690186,937.367981 377.690155,937.384155 376.690186,937.384155
	C293.692139,937.380859 210.694122,937.378235 127.696091,937.371826
	C118.917099,937.371155 117.577957,936.099365 117.670197,927.194031
	C117.963203,898.906799 119.418625,870.733887 126.525330,842.741699
M228.761093,425.269653
	C219.018646,434.122894 209.765900,443.457031 200.665741,452.976074
	C171.202698,483.795197 140.291672,513.222839 111.900024,545.070923
	C99.822075,558.619263 87.919121,572.316467 79.135902,588.406250
	C73.631538,598.489563 73.056717,608.530518 77.816299,618.987854
	C80.098061,624.001160 82.502876,628.936279 85.508408,633.548035
	C102.083473,658.981079 122.032318,681.432251 145.316177,700.905823
	C155.544464,709.460266 166.232285,717.387268 177.722366,724.201050
	C180.382675,725.778625 182.218140,725.785950 184.515137,723.141663
	C201.344910,703.767578 212.877823,681.383179 222.307205,657.753662
	C223.318207,655.220154 223.077972,653.172974 221.533188,650.817871
	C215.426559,641.508057 207.002396,634.389099 199.285217,626.584839
	C195.877411,623.138611 192.474091,622.364746 187.675522,623.668457
	C177.750656,626.364868 167.687698,626.892029 157.903061,622.557007
	C155.254425,621.383484 153.116150,619.880371 153.832367,616.602234
	C154.566101,613.244141 157.436096,613.541565 159.878845,613.678528
	C171.713318,614.342041 183.095062,612.480530 193.965637,607.743713
	C224.255722,594.544800 253.459793,579.237915 280.705414,560.549622
	C307.714844,542.023254 327.672699,517.763550 336.110565,485.457977
	C341.838654,463.527039 342.101227,441.700531 331.630035,420.800995
	C319.117920,395.828033 296.177765,387.289246 270.564301,397.972504
	C255.172699,404.392303 241.780472,413.907654 228.761093,425.269653
M532.230957,651.291199
	C550.431152,674.543823 570.025208,696.526672 591.794739,716.516418
	C598.189148,722.388062 605.141418,727.528442 612.548889,732.077332
	C621.603088,737.637451 630.548767,737.994690 639.842346,732.501587
	C649.642639,726.708923 658.504822,719.689087 667.154846,712.384644
	C685.433289,696.949646 700.624084,678.547485 716.377930,660.697754
	C718.960022,657.772156 722.103149,655.172180 723.571289,650.832458
	C700.136902,637.697754 683.626526,618.512817 673.600159,593.016968
	C661.868469,600.881531 651.030151,608.260986 640.073425,615.460327
	C629.054810,622.700562 620.869690,632.725464 612.932617,643.250122
	C610.761047,635.549683 616.134705,629.896667 617.152283,623.073364
	C614.497009,623.066711 612.340454,623.937561 610.216370,624.815247
	C603.704712,627.505798 597.720581,631.041626 592.548340,635.896545
	C591.376038,636.996948 590.058472,638.423828 588.182678,637.432007
	C586.133545,636.348572 586.535034,634.259338 586.763611,632.518372
	C587.166687,629.447815 589.020996,627.048096 590.902588,624.678833
	C597.518066,616.348816 606.691040,612.207458 616.381165,608.774719
	C624.775757,605.800964 625.349915,604.577942 621.100708,597.042358
	C602.173706,563.477417 586.685669,528.294312 571.482239,492.953064
	C566.284302,480.870209 560.046082,469.228577 551.377686,459.149628
	C549.683289,457.179474 548.328125,454.272400 544.491760,454.722656
	C544.491760,457.170349 544.095703,459.533813 544.560486,461.713745
	C546.547485,471.034271 546.901062,480.543213 547.031738,489.946869
	C547.370605,514.336792 543.375549,538.222900 536.912598,561.709778
	C531.304260,582.090881 524.475220,602.061584 516.538574,621.646301
	C515.071350,625.266846 515.262512,628.149841 517.716248,631.328979
	C522.595581,637.650879 527.120605,644.246338 532.230957,651.291199
M600.725403,305.828674
	C602.264709,302.928741 600.051697,301.720123 598.304749,300.170654
	C596.786438,298.823975 595.548096,297.093781 596.123962,294.923187
	C596.704529,292.734924 598.579468,292.121918 600.643860,291.572906
	C605.409241,290.305634 610.239807,290.837921 615.045715,290.616241
	C622.162964,290.287872 625.042358,285.792511 621.562134,279.714996
	C613.868530,266.279236 605.736938,253.092636 595.688721,241.236649
	C593.545410,238.707733 590.507202,236.840561 592.252686,232.755386
	C592.810974,231.448883 591.695129,230.602753 590.629333,230.024734
	C581.218811,224.921326 571.766235,220.464478 561.119690,227.010056
	C559.299622,228.129028 557.167908,228.753845 555.153992,229.540161
	C553.778625,230.077179 552.225037,230.889297 551.161926,229.148361
	C550.339478,227.801636 551.086121,226.509201 552.026123,225.532028
	C555.481262,221.940048 558.735229,218.107025 563.013306,215.420624
	C572.280518,209.601379 581.467041,211.542358 590.589478,215.835709
	C592.132812,216.562073 593.709595,217.367081 595.317688,216.400162
	C597.342712,215.182541 596.090698,213.351715 595.690979,211.899094
	C591.452393,196.494659 586.751282,181.213409 578.936768,167.194595
	C574.425110,159.100876 567.741821,153.243484 558.330261,151.025574
	C546.322266,148.195786 534.172485,149.230530 522.070435,149.648514
	C518.407776,149.774994 517.207642,152.307434 519.468872,155.616196
	C525.591614,164.575119 529.038513,174.577728 530.877380,185.163696
	C532.497742,194.491577 531.990112,202.787857 522.231018,208.324707
	C514.529663,212.694046 510.146973,219.809204 508.893738,228.943710
	C507.986115,235.559067 508.868896,242.165955 508.240479,248.760620
	C501.060242,250.549469 493.931122,250.322968 486.801361,250.358841
	C483.010498,250.377914 480.878632,249.108521 479.353912,245.341232
	C475.808594,236.581223 470.642303,228.796204 462.438599,223.616989
	C452.644165,217.433487 440.939636,218.985291 435.157501,227.255692
	C429.636047,235.153198 428.029572,243.900314 430.086182,253.377228
	C432.646606,265.175751 439.283234,274.776062 447.016785,283.504883
	C453.106079,290.377808 460.987885,294.210449 470.702515,291.938110
	C474.082367,291.147552 474.873840,293.084473 475.397797,296.019867
	C478.381073,312.732788 483.513977,328.459442 498.143250,338.929901
	C520.846924,355.179291 545.276367,367.540436 573.349243,371.494080
	C584.315002,373.038452 594.828247,365.744598 590.227173,352.659119
	C588.001709,346.329834 587.832397,339.968628 590.633240,333.700592
	C593.200867,327.954468 592.934509,327.442810 586.854065,326.397675
	C583.070068,325.747314 578.919983,324.630402 579.257751,320.112030
	C579.628845,315.147552 584.683044,316.326141 587.735107,316.196655
	C597.961304,315.762756 597.971558,316.004517 600.725403,305.828674
M865.625122,479.075867
	C863.054016,483.932953 860.526306,488.813721 857.891602,493.636078
	C856.757629,495.711731 855.364258,497.971283 852.525879,497.026642
	C849.904236,496.154144 849.487305,493.690521 849.708374,491.228119
	C849.825806,489.919434 850.116150,488.604645 850.500183,487.345001
	C853.095825,478.832367 857.707458,471.270477 861.901123,463.523499
	C867.643188,452.916077 875.828796,444.042297 882.845764,434.337799
	C883.755493,433.079529 885.342896,431.563812 883.867188,429.916382
	C882.624878,428.529510 880.708679,428.947174 879.165588,429.580902
	C874.637268,431.440613 870.751892,434.270721 867.379395,437.819794
	C858.864014,446.781036 851.528381,456.690430 844.224304,466.623444
	C839.683777,472.798309 834.495422,478.839661 832.903564,486.424286
	C831.766846,491.840271 828.712524,494.444214 824.288086,496.347198
	C821.543335,497.527740 818.745239,498.652832 815.874878,499.461578
	C799.307190,504.129608 783.216858,509.841217 768.825012,519.622437
	C766.755310,521.029053 765.176880,523.469666 762.032043,523.716614
	C761.478394,519.009766 764.051208,515.949707 766.658325,512.963989
	C772.687500,506.059479 780.782288,501.924622 788.275513,496.983673
	C791.545471,494.827484 795.021301,492.876801 797.114136,489.189972
	C795.178589,487.904785 793.279663,487.595032 791.290771,487.347992
	C775.288574,485.360260 770.092346,478.583130 771.451782,462.699310
	C771.988647,456.426788 773.079041,450.173950 772.683960,443.801208
	C772.057251,433.689331 767.690552,428.843170 758.875366,429.239655
	C758.704590,430.671936 758.352356,432.147705 758.380859,433.616150
	C758.666931,448.368683 754.665894,461.802063 746.653687,474.212891
	C739.451355,485.369019 735.742737,497.672424 735.941284,511.060852
	C736.120728,523.156738 733.776489,534.615906 726.475098,544.548584
	C722.668274,549.727234 723.190002,554.636719 726.095825,559.868835
	C732.237183,570.926880 741.424011,578.997559 751.459595,586.329224
	C754.583069,588.611206 756.409912,588.256348 758.723450,585.090942
	C766.318176,574.699707 774.795898,565.157593 785.822144,558.130310
	C802.139648,547.730713 819.367493,538.945374 836.390625,529.843933
	C849.067505,523.066223 858.796082,513.943481 865.444885,501.298279
	C872.683899,487.530579 881.977478,475.165070 891.547363,462.952423
	C898.830261,453.658264 906.810303,444.878143 913.045715,434.785126
	C914.067200,433.131744 915.558960,431.312286 913.642578,429.390442
	C911.946228,427.689240 909.962280,428.330719 908.076782,429.203705
	C902.049011,431.994385 897.303040,436.412292 893.010742,441.330963
	C882.913208,452.902100 873.719849,465.142120 865.625122,479.075867
M436.997772,465.727173
	C450.826508,506.159760 461.297760,547.469116 468.709045,590.639648
	C482.225098,568.561890 493.151764,546.713440 501.412689,523.588501
	C507.523956,506.481079 511.371704,488.816376 513.558960,470.796753
	C514.518799,462.888977 507.828369,456.719086 499.806396,457.659271
	C494.970825,458.226013 490.153076,457.619873 485.710327,455.541199
	C483.044769,454.294098 480.706390,454.452057 478.091064,455.594849
	C470.925751,458.725861 463.649292,461.591461 456.126526,463.770996
	C447.124237,466.379242 442.990234,463.559845 443.842590,454.396423
	C444.570099,446.575348 443.920715,438.707336 444.934143,430.989532
	C445.737213,424.874023 444.754181,418.647430 446.471191,412.649292
	C448.045105,407.151093 450.671844,405.457062 456.090057,407.148560
	C460.200195,408.431702 464.070526,410.463623 468.108490,412.002563
	C472.198669,413.561401 475.647339,416.623383 480.164825,417.539734
	C481.119781,415.221710 479.745880,414.056122 478.773651,412.795380
	C475.708282,408.820465 472.070160,405.401367 468.339386,402.067108
	C446.363892,382.427551 423.396912,363.881195 403.011719,342.488068
	C395.647156,334.759399 395.458710,334.862488 388.587372,343.358673
	C380.700745,353.110229 380.733124,350.321686 387.515472,360.939392
	C408.340363,393.540558 423.402374,428.850952 436.997772,465.727173
M504.585358,379.910675
	C488.166687,367.726990 474.788025,353.327698 470.204712,332.559967
	C468.633698,325.441315 466.956116,318.336304 465.722168,311.157166
	C465.055267,307.277130 463.839081,304.813721 459.458435,304.256470
	C450.632080,303.133759 443.894379,298.008362 437.661377,292.064117
	C436.278076,290.744965 435.183136,288.860016 432.709778,288.774414
	C432.086578,289.693085 431.306610,290.576172 430.821594,291.599121
	C426.163513,301.423431 418.425385,307.304840 408.016113,310.182983
	C400.278717,312.322357 398.732971,317.226196 403.827393,323.390594
	C414.566071,336.384705 426.947510,347.778259 439.509735,358.949249
	C453.309418,371.220581 467.322357,383.251892 481.206665,395.428528
	C485.661560,399.335480 490.002930,403.371857 495.033875,407.926300
	C499.173309,400.722351 502.795258,394.034729 506.809784,387.591736
	C508.868225,384.288177 508.510406,382.109344 504.585358,379.910675
M899.951599,392.398468
	C903.705322,383.260834 906.173767,373.807922 908.117676,363.443085
	C902.636108,364.529236 898.311768,364.807037 894.170105,363.283630
	C890.871338,362.070282 888.105347,362.886597 885.162781,364.443787
	C876.001709,369.291870 866.515076,371.058044 856.283264,367.744354
	C851.863892,366.313110 847.018066,366.057404 842.491516,367.522736
	C832.977112,370.602753 823.844482,369.502716 814.693787,366.023224
	C810.793091,364.539948 806.682678,364.306152 802.433105,365.088867
	C792.481323,366.921814 782.555359,367.925995 773.770447,361.055878
	C772.825928,360.317261 771.596924,360.020294 770.507263,360.808105
	C768.935425,361.944519 768.793823,363.669769 769.238098,365.325134
	C771.819214,374.941223 773.858276,384.748108 778.608582,393.640411
	C781.294067,398.667694 785.395386,401.045197 791.260681,400.740265
	C797.522217,400.414734 798.380859,399.396667 796.806030,393.087585
	C795.720825,388.740204 794.491089,384.400757 794.658508,379.840912
	C794.721619,378.120758 794.830566,376.380798 796.899658,375.891144
	C798.811157,375.438690 800.111938,376.573181 801.018250,378.048523
	C801.885315,379.460114 802.628845,380.970703 803.240234,382.511749
	C805.079773,387.148499 806.802002,391.831665 808.624329,396.475433
	C809.490845,398.683502 810.445618,400.775208 813.457825,400.678955
	C818.116211,400.529999 822.781616,400.603943 827.440308,400.462189
	C830.746460,400.361633 832.485718,398.790802 832.747742,395.215973
	C833.049744,391.095886 833.932617,387.016418 834.605530,382.926270
	C834.953918,380.809113 835.863647,378.986023 838.271362,378.845520
	C840.976807,378.687622 841.850525,380.726074 842.592041,382.885773
	C843.990540,386.959503 843.435364,391.168304 843.245483,395.273651
	C843.059753,399.289856 844.599121,400.623810 848.371582,400.526794
	C852.864136,400.411255 857.367798,400.483429 861.859497,400.657104
	C864.927612,400.775726 866.130737,399.489014 866.866211,396.485046
	C868.206543,391.010437 870.083923,385.654816 871.974365,380.333771
	C872.694824,378.306000 873.984741,376.279633 876.748108,376.897430
	C879.317566,377.471893 879.357910,379.640808 879.317078,381.667053
	C879.226868,386.143921 879.652100,390.618713 878.594910,395.093353
	C878.124329,397.084961 877.266846,399.833038 880.826599,400.678253
	C888.989685,402.616516 895.168091,400.178650 899.951599,392.398468
M804.626831,285.154114
	C800.293945,283.234467 796.460815,280.615326 793.641541,276.762115
	C791.393555,273.689667 789.073242,274.100464 786.438965,276.143524
	C777.924072,282.747437 777.051453,294.328583 784.531921,302.054901
	C788.462830,306.115051 793.092957,309.219055 798.784424,309.587067
	C810.482422,310.343506 821.661438,312.285980 832.051941,318.352264
	C837.418091,321.485168 843.589417,319.855804 848.871704,317.152557
	C856.401306,313.299286 864.234009,312.262573 872.534485,312.583832
	C879.169250,312.840546 885.334534,310.783844 890.877136,307.085266
	C903.655701,298.558014 903.810730,283.777130 891.304749,274.865723
	C888.967163,273.199982 887.296509,273.172821 885.468689,275.633606
	C880.667480,282.097504 873.839600,285.337830 866.248962,287.317352
	C860.601990,288.790070 854.816895,289.473663 849.052063,289.896545
	C834.249451,290.982452 819.458374,291.331909 804.626831,285.154114
M686.283691,591.310852
	C694.230530,611.203613 707.893494,626.208191 725.758911,637.676697
	C729.816711,640.281616 733.152100,639.732971 736.397766,636.346191
	C744.652161,627.733032 750.515564,617.438354 756.859192,607.480591
	C758.577393,604.783325 756.791931,603.743835 754.619019,602.634460
	C737.005310,593.641541 722.869385,580.875916 712.712036,563.807861
	C711.660400,562.040710 711.167725,559.733643 708.075562,558.236328
	C701.657654,564.571167 695.720398,571.341370 689.311096,577.630432
	C685.373962,581.493713 683.972473,585.460754 686.283691,591.310852
M795.408997,472.667206
	C799.839355,471.838043 804.076233,470.403656 808.138489,468.474548
	C825.711182,460.129639 840.071411,447.664917 852.976746,433.362396
	C854.248596,431.952881 856.432922,430.567383 855.368835,428.341583
	C854.380127,426.273712 851.853149,426.573151 849.984131,426.558899
	C828.870667,426.397339 807.756165,426.354095 786.641968,426.315765
	C782.817688,426.308807 781.589355,428.121796 782.918213,431.799042
	C784.289856,435.594757 784.429565,439.568207 784.383850,443.583801
	C784.306458,450.386658 784.023010,457.155914 783.459290,463.949677
	C782.799988,471.895050 786.819397,474.760284 795.408997,472.667206
M141.171494,904.390930
	C144.783890,907.819214 148.703781,908.106750 153.582321,906.967163
	C161.549011,905.105957 165.554749,898.960144 170.152939,893.415222
	C175.170593,887.364563 174.845673,883.560059 170.049713,877.413879
	C166.884415,873.357605 162.463715,870.306519 160.266006,865.515625
	C157.839127,860.225220 153.918411,857.841919 148.065506,857.816833
	C142.180084,857.791565 138.246613,860.170715 135.951279,865.549500
	C134.712860,868.451599 133.397324,871.339355 131.861465,874.091187
	C129.919113,877.571350 129.739883,881.137329 131.223160,884.662903
	C133.989502,891.238159 136.304413,898.056030 141.171494,904.390930
M811.830444,248.688477
	C807.812500,245.283447 805.459839,248.449814 804.052490,251.310760
	C798.779358,262.031128 800.493713,269.664062 811.407898,274.731720
	C819.116943,278.311188 827.242126,278.431396 835.311096,276.490204
	C845.131958,274.127625 854.378479,270.448761 860.855225,262.076080
	C862.473389,259.984253 863.804016,257.682617 861.598145,254.551636
	C855.067993,258.787048 848.413574,262.275909 840.832947,262.998505
	C827.110474,264.306549 816.002014,263.539124 811.830444,248.688477
M924.656250,331.405457
	C924.630005,323.933167 921.082764,318.062012 916.008240,313.013763
	C912.271606,309.296448 907.795166,309.731140 903.735596,313.060303
	C897.674194,318.031067 898.511414,324.983490 898.466370,331.333374
	C898.422302,337.536133 905.633423,343.459320 911.558899,343.429474
	C920.731628,343.383270 923.649658,340.889252 924.656250,331.405457
M243.557434,600.527405
	C244.404404,597.860535 242.784668,599.149048 241.930069,599.572021
	C231.826279,604.573120 221.734146,609.597900 211.663605,614.665466
	C211.151505,614.923218 210.863556,615.626343 210.114120,616.573425
	C216.826981,623.881531 223.448822,631.090515 230.825394,639.121216
	C236.304581,626.051819 240.654739,613.826904 243.557434,600.527405
M839.238586,231.717804
	C843.536377,227.545502 846.988403,223.040298 845.805420,215.941772
	C844.274963,216.774200 843.108887,217.027603 842.599426,217.746429
	C838.874207,223.002487 833.498474,225.862686 827.818542,228.373779
	C826.786011,228.830261 825.835327,229.645981 825.069519,230.496353
	C823.297913,232.463455 820.892700,234.694305 822.993896,237.414536
	C825.206604,240.279160 828.524841,240.486023 831.488037,238.348251
	C834.043396,236.504669 836.303467,234.251831 839.238586,231.717804
z"/>
<path fill="#ffffff" opacity="1.000000" stroke="none" style="fill-opacity: 1"
	d="
M467.249451,265.799927
	C467.049683,268.547913 468.794098,271.620148 465.775726,272.946594
	C463.063416,274.138519 460.606384,272.246155 458.480194,270.683502
	C450.991425,265.179596 450.336029,257.348175 451.835266,249.144470
	C452.566376,245.143890 453.519470,241.394485 449.068604,239.186874
	C444.581299,236.961227 442.495972,240.720932 439.994965,243.280151
	C439.796051,243.483734 439.414917,243.509247 439.116333,243.611694
	C437.917694,238.909073 439.266663,234.395782 443.054230,231.523865
	C447.091644,228.462433 451.596893,228.916962 455.778320,230.969147
	C460.369171,233.222290 462.865448,237.455612 464.240173,242.238297
	C465.666382,247.200043 466.566895,252.269226 466.353424,257.485138
	C466.244415,260.148407 466.236023,262.822906 467.249451,265.799927
z"/>
<path fill="#ffffff" opacity="1.000000" stroke="none" style="fill-opacity: 1"
	d="
M582.410828,240.199280
	C583.625366,244.743027 581.581970,248.205780 579.346313,251.491501
	C577.577148,254.091522 575.053284,253.682816 572.714355,252.242142
	C568.530029,249.664841 565.374817,246.127625 562.863342,241.217560
	C569.335205,238.491882 575.739258,239.838074 582.410828,240.199280
z"/>
</svg>
